<?xml version="1.0" encoding="UTF-8"?>
<svg version="1.1" xmlns="http://www.w3.org/2000/svg" width="330" height="330">
<path d="M0 0 C0.56251465 0.40025391 1.1250293 0.80050781 1.70458984 1.21289062 C17.17493087 12.41114261 30.51265096 26.04099059 41 42 C41.39767578 42.60134766 41.79535156 43.20269531 42.20507812 43.82226562 C52.74871602 59.99380908 59.44717717 77.29022443 64 96 C64.17934082 96.70431152 64.35868164 97.40862305 64.54345703 98.13427734 C69.66901454 119.00807212 69.29294944 145.21340341 64 166 C63.70198486 167.22468994 63.70198486 167.22468994 63.39794922 168.47412109 C56.40656754 196.69626033 43.00832203 220.86351388 23 242 C21.78763672 243.30904297 21.78763672 243.30904297 20.55078125 244.64453125 C-0.07661207 266.19691979 -27.25403821 279.85877086 -56 287 C-57.90072266 287.48146484 -57.90072266 287.48146484 -59.83984375 287.97265625 C-98.67859594 296.57845309 -142.84031715 287.86765691 -176.1875 266.6875 C-178.48983989 265.16774011 -180.75264131 263.59979269 -183 262 C-183.56251465 261.59974609 -184.1250293 261.19949219 -184.70458984 260.78710938 C-200.17493087 249.58885739 -213.51265096 235.95900941 -224 220 C-224.39767578 219.39865234 -224.79535156 218.79730469 -225.20507812 218.17773438 C-235.74871602 202.00619092 -242.44717717 184.70977557 -247 166 C-247.17934082 165.29568848 -247.35868164 164.59137695 -247.54345703 163.86572266 C-252.66901454 142.99192788 -252.29294944 116.78659659 -247 96 C-246.80132324 95.18354004 -246.60264648 94.36708008 -246.39794922 93.52587891 C-239.40656754 65.30373967 -226.00832203 41.13648612 -206 20 C-205.19175781 19.12730469 -204.38351563 18.25460938 -203.55078125 17.35546875 C-182.92338793 -4.19691979 -155.74596179 -17.85877086 -127 -25 C-125.09927734 -25.48146484 -125.09927734 -25.48146484 -123.16015625 -25.97265625 C-81.42926135 -35.21928708 -34.53717541 -24.5854482 0 0 Z " fill="#FCFCFD" transform="translate(254,34)"/>
<path d="M0 0 C1.02205536 0.00273422 1.02205536 0.00273422 2.0647583 0.00552368 C12.26844099 0.05143502 21.79626144 0.60197275 31.6875 3.3125 C33.06374513 3.65647795 34.44004985 4.00021755 35.81640625 4.34375 C66.69356096 12.41515274 93.11353552 32.06571459 109.6875 59.3125 C119.70417507 76.48985601 125.51877286 95.26958774 124.6875 115.3125 C125.64011719 115.28414063 126.59273438 115.25578125 127.57421875 115.2265625 C132.28872843 115.2289322 136.85205267 115.95454091 141.5 116.6875 C142.33853516 116.81382812 143.17707031 116.94015625 144.04101562 117.0703125 C149.96011225 117.9802428 155.82469078 119.09346133 161.6875 120.3125 C162.01876892 135.57125599 162.2912052 150.41200465 158.6875 165.3125 C158.38948486 166.55241699 158.38948486 166.55241699 158.08544922 167.81738281 C154.13784076 183.73201106 147.21101355 211.63015763 132.6875 221.3125 C125.4275 221.3125 118.1675 221.3125 110.6875 221.3125 C110.6875 203.4925 110.6875 185.6725 110.6875 167.3125 C114.1525 165.3325 114.1525 165.3325 117.6875 163.3125 C124.63223954 157.54434857 125.99191236 149.79043822 127.6875 141.3125 C124.0575 141.6425 120.4275 141.9725 116.6875 142.3125 C116.171875 143.67375 115.65625 145.035 115.125 146.4375 C113.02190509 151.15827688 110.32816138 154.85227411 105.6875 157.3125 C104.0375 157.3125 102.3875 157.3125 100.6875 157.3125 C100.6875 178.4325 100.6875 199.5525 100.6875 221.3125 C99.6975 221.3125 98.7075 221.3125 97.6875 221.3125 C97.6875 200.1925 97.6875 179.0725 97.6875 157.3125 C95.3775 156.9825 93.0675 156.6525 90.6875 156.3125 C86.04536976 152.76959914 82.97024249 148.01357772 81.6875 142.3125 C78.0575 141.9825 74.4275 141.6525 70.6875 141.3125 C72.88270841 152.52136718 75.56231023 159.2833515 84.6875 166.3125 C85.6775 166.9725 86.6675 167.6325 87.6875 168.3125 C88.04826355 170.56509399 88.04826355 170.56509399 88.02807617 173.40478516 C88.02784958 174.46573395 88.02762299 175.52668274 88.02738953 176.61978149 C88.01190567 177.76876923 87.99642181 178.91775696 87.98046875 180.1015625 C87.97622391 181.27512299 87.97197906 182.44868347 87.96760559 183.6578064 C87.95076976 187.41793454 87.91310777 191.17753297 87.875 194.9375 C87.85995954 197.48176311 87.84627003 200.0260346 87.83398438 202.5703125 C87.80085017 208.81789005 87.75060206 215.06515719 87.6875 221.3125 C82.95533707 221.43658851 78.22413168 221.52706516 73.49072266 221.5871582 C71.88248182 221.61222128 70.27435398 221.64628171 68.66650391 221.68969727 C66.34769761 221.75071848 64.03040335 221.77878963 61.7109375 221.80078125 C60.99819672 221.82658768 60.28545593 221.8523941 59.55111694 221.87898254 C55.66255314 221.88114135 53.24405535 221.33016105 50.27197266 218.91479492 C47.01128716 215.63162406 45.6875 213.93705292 45.6875 209.3125 C39.22571167 212.70561077 33.31032564 216.5500123 27.4375 220.875 C26.66148437 221.43896484 25.88546875 222.00292969 25.0859375 222.58398438 C21.91505459 224.8972138 18.79836197 227.22135012 15.765625 229.71484375 C13.6875 231.3125 13.6875 231.3125 11.6875 231.3125 C11.6875 199.6325 11.6875 167.9525 11.6875 135.3125 C20.83131833 130.74059084 29.95176237 126.18392811 39.1875 121.8125 C44.64678557 119.22495069 50.10057858 116.63998452 55.46875 113.8671875 C56.54866211 113.3112793 56.54866211 113.3112793 57.65039062 112.74414062 C58.95589866 112.06697874 60.25714686 111.38150121 61.55273438 110.68554688 C69.15010917 106.74772886 75.83350907 107.3253702 83.99609375 108.52734375 C84.96281509 108.66193497 85.92953644 108.79652618 86.92555237 108.93519592 C89.99338918 109.36442162 93.05912522 109.80699902 96.125 110.25 C98.2127659 110.54450533 100.30065558 110.83813458 102.38867188 111.13085938 C107.48976999 111.84793913 112.58902745 112.57699408 117.6875 113.3125 C116.3874767 99.03389187 116.3874767 99.03389187 113.0625 85.125 C112.80307617 84.29605225 112.54365234 83.46710449 112.27636719 82.61303711 C103.47386788 55.76334549 82.86489549 33.77751532 57.875 21.0625 C28.70864254 6.87346123 -3.03145047 2.45700615 -34.3125 12.3125 C-35.04146484 12.53711914 -35.77042969 12.76173828 -36.52148438 12.99316406 C-63.67137085 21.58854287 -86.3144555 41.20401111 -99.57861328 66.26489258 C-103.38738148 73.71802812 -106.15643181 81.2112339 -108.3125 89.3125 C-108.63557129 90.33400146 -108.95864258 91.35550293 -109.29150391 92.40795898 C-110.54933109 96.79722546 -110.99193257 101.21762966 -111.4375 105.75 C-111.52386719 106.57693359 -111.61023438 107.40386719 -111.69921875 108.25585938 C-111.90921616 110.27416778 -112.11164451 112.29326133 -112.3125 114.3125 C-111.19915283 114.135979 -110.08580566 113.95945801 -108.9387207 113.77758789 C-104.74795424 113.11454706 -100.5561451 112.45830537 -96.36401367 111.80395508 C-94.56099488 111.52158553 -92.75825127 111.2374523 -90.95581055 110.95141602 C-85.82507321 110.13785006 -80.69101544 109.36858628 -75.54650879 108.64715576 C-73.6014501 108.35578489 -71.66681412 107.99643666 -69.73535156 107.62548828 C-59.53219602 106.03610784 -52.2000465 110.42498923 -43.4375 115.0625 C-42.00665231 115.79579319 -40.57436059 116.52627566 -39.140625 117.25390625 C-34.52837847 119.60113688 -29.92054144 121.95702473 -25.3125 124.3125 C-17.7225 127.9425 -10.1325 131.5725 -2.3125 135.3125 C-2.3125 166.9925 -2.3125 198.6725 -2.3125 231.3125 C-5.05314964 229.94217518 -7.33749875 228.70132717 -9.81640625 226.9921875 C-10.46963867 226.54278809 -11.12287109 226.09338867 -11.79589844 225.63037109 C-12.48200195 225.15422363 -13.16810547 224.67807617 -13.875 224.1875 C-14.58301758 223.69975098 -15.29103516 223.21200195 -16.02050781 222.70947266 C-21.12813852 219.17671404 -26.13540932 215.53419943 -31.078125 211.7734375 C-33.22101835 210.37231492 -34.80920476 209.73737121 -37.3125 209.3125 C-37.3125 210.34375 -37.3125 211.375 -37.3125 212.4375 C-37.83891122 215.7325677 -38.85652219 217.34764671 -41.375 219.53125 C-47.6273649 223.97629067 -54.98626509 222.94642344 -62.3125 222.6875 C-67.2625 222.56375 -72.2125 222.44 -77.3125 222.3125 C-77.3125 205.1525 -77.3125 187.9925 -77.3125 170.3125 C-73.0225 170.3125 -68.7325 170.3125 -64.3125 170.3125 C-64.3125 166.6825 -64.3125 163.0525 -64.3125 159.3125 C-67.19267102 159.29136667 -70.05862941 159.31920793 -72.9375 159.375 C-73.74574219 159.36404297 -74.55398437 159.35308594 -75.38671875 159.34179688 C-76.17949219 159.36435547 -76.97226563 159.38691406 -77.7890625 159.41015625 C-78.51174316 159.41539307 -79.23442383 159.42062988 -79.97900391 159.42602539 C-84.01593089 160.95961839 -86.29830958 163.52710427 -88.3125 167.3125 C-89.17041772 171.55571022 -89.15083935 175.70915515 -89.1171875 180.02734375 C-89.13089386 181.23822159 -89.14460022 182.44909943 -89.15872192 183.69667053 C-89.19598633 187.54815952 -89.19230884 191.39835648 -89.1875 195.25 C-89.20562899 197.86785867 -89.2264323 200.48570027 -89.25 203.10351562 C-89.30181821 209.50663688 -89.32006412 215.90918829 -89.3125 222.3125 C-90.6325 222.3125 -91.9525 222.3125 -93.3125 222.3125 C-93.31796844 221.31771133 -93.31796844 221.31771133 -93.32354736 220.30282593 C-93.36540147 213.39179614 -93.43476824 206.48142865 -93.52001953 199.57080078 C-93.54822159 196.99274321 -93.56943987 194.41459929 -93.58349609 191.83642578 C-93.60493509 188.12748025 -93.65159396 184.41957207 -93.703125 180.7109375 C-93.70435364 179.56072113 -93.70558228 178.41050476 -93.70684814 177.22543335 C-93.82063528 170.98939858 -94.02542365 166.99984632 -98.3125 162.3125 C-101.3336434 160.2984044 -102.11910017 160.04413404 -105.54296875 159.8984375 C-106.74663086 159.84042969 -106.74663086 159.84042969 -107.97460938 159.78125 C-108.80798828 159.7503125 -109.64136719 159.719375 -110.5 159.6875 C-111.7674707 159.62949219 -111.7674707 159.62949219 -113.06054688 159.5703125 C-115.14417524 159.47613721 -117.22830753 159.39323325 -119.3125 159.3125 C-119.3125 162.9425 -119.3125 166.5725 -119.3125 170.3125 C-115.0225 170.3125 -110.7325 170.3125 -106.3125 170.3125 C-106.3125 187.1425 -106.3125 203.9725 -106.3125 221.3125 C-125.3125 221.3125 -125.3125 221.3125 -129.5 217.25 C-130.49245371 215.29781083 -131.4258393 213.31495843 -132.3125 211.3125 C-133.27877064 209.64348708 -134.2453774 207.97465405 -135.21923828 206.31005859 C-145.91781293 187.52293579 -154.16740089 164.1124727 -153.3125 142.3125 C-144.03701515 140.11444393 -134.77796417 138.57537699 -125.33520508 137.31518555 C-124.46790771 137.19828369 -123.60061035 137.08138184 -122.70703125 136.9609375 C-121.93206299 136.85958496 -121.15709473 136.75823242 -120.35864258 136.65380859 C-118.12063005 136.3351149 -118.12063005 136.3351149 -115.3125 135.3125 C-116.19510498 135.24780518 -117.07770996 135.18311035 -117.98706055 135.11645508 C-121.27839979 134.8642742 -124.56674562 134.59171993 -127.85522461 134.30541992 C-129.27546154 134.18594865 -130.69639863 134.07450608 -132.11791992 133.97143555 C-134.16824858 133.82134143 -136.21427588 133.64198732 -138.26171875 133.45703125 C-139.49237061 133.35753174 -140.72302246 133.25803223 -141.9909668 133.15551758 C-146.73872166 131.9505196 -149.09700349 129.28044672 -151.625 125.1875 C-152.3125 123.3125 -152.3125 123.3125 -152.3125 120.3125 C-151.57386719 120.19132812 -150.83523437 120.07015625 -150.07421875 119.9453125 C-149.05972656 119.77773437 -148.04523438 119.61015625 -147 119.4375 C-145.90300781 119.25703125 -144.80601562 119.0765625 -143.67578125 118.890625 C-140.66680616 118.3734028 -137.68081227 117.78701891 -134.6875 117.1875 C-129.51750757 116.22424086 -124.55275283 116.1473104 -119.3125 116.3125 C-119.33699219 115.0028125 -119.36148438 113.693125 -119.38671875 112.34375 C-119.35620985 81.10264036 -104.42748031 53.48749595 -82.82421875 31.81640625 C-60.06686716 10.20535089 -31.19410916 -0.13271634 0 0 Z " fill="#154682" transform="translate(159.3125,34.6875)"/>
<path d="M0 0 C0.56251465 0.40025391 1.1250293 0.80050781 1.70458984 1.21289062 C17.17493087 12.41114261 30.51265096 26.04099059 41 42 C41.39767578 42.60134766 41.79535156 43.20269531 42.20507812 43.82226562 C56.66857368 66.00597956 67.6301985 94.18155281 67 121 C62.89512466 120.54787931 58.79125787 120.0871449 54.6875 119.625 C53.53958984 119.49867188 52.39167969 119.37234375 51.20898438 119.2421875 C44.07600227 118.43391757 37.04290912 117.39161096 30 116 C29.94054199 115.36723145 29.88108398 114.73446289 29.81982422 114.08251953 C28.44232265 100.05635712 26.46780812 87.04264764 21 74 C20.57291748 72.9805127 20.57291748 72.9805127 20.13720703 71.94042969 C7.62964632 43.02577026 -16.40615341 22.10561703 -45.25 10.3125 C-77.76971178 -1.57512698 -114.15236727 -2.15601438 -146 12 C-172.98473867 24.73941983 -195.27461359 47.34865014 -205.92285156 75.43408203 C-210.59544141 88.95930688 -212.56230824 102.81204735 -214 117 C-218.21719234 117.57218379 -222.43472373 118.14177931 -226.65258789 118.70898438 C-228.08725414 118.90228404 -229.52182552 119.09628926 -230.95629883 119.29101562 C-233.01879704 119.57087 -235.08162373 119.84818101 -237.14453125 120.125 C-238.38565674 120.29257813 -239.62678223 120.46015625 -240.90551758 120.6328125 C-244 121 -244 121 -247 121 C-246.4070085 122.46291304 -245.80016177 123.92021513 -245.1875 125.375 C-244.68283203 126.59316406 -244.68283203 126.59316406 -244.16796875 127.8359375 C-243.05560918 130.30147458 -243.05560918 130.30147458 -240 132 C-237.76153416 132.34581427 -235.50709752 132.59196809 -233.25 132.78125 C-232.59547852 132.84026489 -231.94095703 132.89927979 -231.26660156 132.96008301 C-229.17835279 133.14816979 -227.0894171 133.32540092 -225 133.5 C-222.24903981 133.72987996 -219.49938846 133.97085155 -216.75 134.21875 C-214.91695312 134.3724707 -214.91695312 134.3724707 -213.046875 134.52929688 C-210 135 -210 135 -207 137 C-234.80751391 141.99536178 -234.80751391 141.99536178 -248 143 C-248 144.32 -248 145.64 -248 147 C-248.66 147 -249.32 147 -250 147 C-250.63534466 110.38459829 -250.63534466 110.38459829 -247 96 C-246.80132324 95.18208984 -246.60264648 94.36417969 -246.39794922 93.52148438 C-239.40583164 65.30161206 -226.00679422 41.13487217 -206 20 C-205.19175781 19.12730469 -204.38351563 18.25460938 -203.55078125 17.35546875 C-182.92338793 -4.19691979 -155.74596179 -17.85877086 -127 -25 C-125.09927734 -25.48146484 -125.09927734 -25.48146484 -123.16015625 -25.97265625 C-81.42926135 -35.21928708 -34.53717541 -24.5854482 0 0 Z " fill="#FDFDFE" transform="translate(254,34)"/>
<path d="M0 0 C8.49350123 6.217186 15.90409492 14.05611784 18.58203125 24.45703125 C20.16637862 39.22912252 18.24542432 52.27319666 8.83203125 64.14453125 C0.93818306 72.79971505 -9.72121106 77.37795915 -21.35717773 77.98046875 C-34.21714328 78.22423068 -43.92002117 73.28352084 -53.25 64.7890625 C-60.88489784 56.98782701 -64.96894703 47.04384664 -64.98046875 36.20703125 C-64.64097035 24.26208556 -60.9176824 15.68039143 -53.04296875 6.76953125 C-38.20112843 -6.30542332 -17.72082688 -11.30812055 0 0 Z " fill="#134481" transform="translate(183.41796875,72.54296875)"/>
<path d="M0 0 C0.54873779 0.16226074 1.09747559 0.32452148 1.6628418 0.49169922 C4.30227384 1.06574053 6.6934075 1.12957124 9.39453125 1.1328125 C10.95204102 1.13474609 10.95204102 1.13474609 12.54101562 1.13671875 C13.62060547 1.13285156 14.70019531 1.12898437 15.8125 1.125 C16.88048828 1.12886719 17.94847656 1.13273438 19.04882812 1.13671875 C24.47265646 1.13001024 29.65842492 0.96011193 35 0 C34.67 1.32 34.34 2.64 34 4 C30.37 5.65 26.74 7.3 23 9 C22.67 43.98 22.34 78.96 22 115 C20.35 115 18.7 115 17 115 C17 80.02 17 45.04 17 9 C15.35 8.67 13.7 8.34 12 8 C9.87906977 7.18835167 7.77481301 6.33206272 5.6875 5.4375 C4.61886719 4.98246094 3.55023438 4.52742187 2.44921875 4.05859375 C1.64097656 3.70925781 0.83273438 3.35992187 0 3 C0 2.01 0 1.02 0 0 Z " fill="#224F89" transform="translate(144,151)"/>
<path d="M0 0 C3.95522111 2.08955078 6.62738482 4.22290572 9 8 C9.89991132 12.9130294 9.50962889 16.96186709 7.3125 21.4375 C3.74558223 25.3900305 1.48103729 26.757207 -3.8125 27.625 C-8.52683585 27.47263553 -11.10492769 24.93140801 -14.43359375 21.82421875 C-17.20743973 18.59382954 -17.34233831 15.21650524 -17.28125 11.0625 C-16.67697907 6.63117985 -14.06761379 3.88967816 -10.75 1.125 C-7.10441212 -0.36637686 -3.84486501 -0.68604454 0 0 Z " fill="#F8F9FB" transform="translate(72,166)"/>
<path d="M0 0 C4.38773175 2.19386588 7.09334197 4.44520582 9 9 C9.84137629 14.5741179 8.39270981 17.73182317 5.484375 22.30078125 C3.27649234 24.82822587 1.15644241 25.77768944 -2.11328125 26.40625 C-6.71564602 26.60244317 -9.3941182 26.18372756 -13 23.1875 C-16.29878032 20.09489345 -17.18007935 17.21195787 -17.4375 12.75 C-17.41406345 7.96894285 -15.74345728 5.68882499 -12.5078125 2.3125 C-8.84347336 -0.87718381 -4.62353299 -0.56042824 0 0 Z " fill="#F8F9FB" transform="translate(262,162)"/>
<path d="M0 0 C0.33 0 0.66 0 1 0 C1 7.92 1 15.84 1 24 C0.67 24 0.34 24 0 24 C0 22.35 0 20.7 0 19 C-13.9772336 16.80165763 -27.94140107 14.61397813 -42 13 C-42 12.34 -42 11.68 -42 11 C-39.18802378 10.68207075 -36.37558856 10.37032501 -33.5625 10.0625 C-32.71026855 9.96678711 -31.85803711 9.87107422 -30.97998047 9.77246094 C-26.69027504 9.31072457 -22.44375469 8.94298565 -18.12890625 8.85546875 C-16.98989868 8.8253772 -16.98989868 8.8253772 -15.82788086 8.79467773 C-14.39278514 8.76557184 -12.95695846 8.76000318 -11.52172852 8.78149414 C-8.74542445 8.71551376 -6.61109836 8.51895167 -4.45214844 6.68554688 C-2.68041758 4.60100863 -1.22357401 2.44714802 0 0 Z " fill="#F0F3F7" transform="translate(320,158)"/>
<path d="M0 0 C0.66 0 1.32 0 2 0 C2.47308594 1.05316406 2.94617188 2.10632813 3.43359375 3.19140625 C8.00893227 13.22276578 13.13220253 22.66857208 19 32 C18.01 32 17.02 32 16 32 C14.41104169 29.85675391 13.07681305 27.80026378 11.75 25.5 C11.3588501 24.83597168 10.9677002 24.17194336 10.56469727 23.48779297 C0 5.11496647 0 5.11496647 0 0 Z " fill="#F2F4F8" transform="translate(14,222)"/>
<path d="M0 0 C2.97 0 5.94 0 9 0 C9.33 0.99 9.66 1.98 10 3 C6.7 2.67 3.4 2.34 0 2 C0 1.34 0 0.68 0 0 Z " fill="#B2C2D5" transform="translate(278,169)"/>
</svg>
