<?xml version="1.0" encoding="UTF-8"?>
<svg version="1.1" xmlns="http://www.w3.org/2000/svg" width="420" height="420">
<path d="M0 0 C0.83644043 0.18191895 1.67288086 0.36383789 2.53466797 0.55126953 C36.68657285 8.13230138 69.43183157 25.12745181 95 49 C96.39112536 50.21375054 97.78671325 51.42241253 99.1875 52.625 C106.61585477 59.13223878 112.88085462 66.24770434 119 74 C119.721875 74.90492187 120.44375 75.80984375 121.1875 76.7421875 C141.15919318 102.49140621 154.02523277 132.28262785 161 164 C161.17934082 164.79647949 161.35868164 165.59295898 161.54345703 166.41357422 C167.99648261 196.61527191 166.51556381 233.90396221 156.84472656 263.15576172 C156.10185826 265.65703796 155.70429296 267.84958529 155.5 270.4375 C154.99988592 274.00081283 154.12064887 275.33003675 152.12792969 278.18139648 C149.87680513 281.81096939 148.46909155 285.86303485 146.875 289.8125 C138.36532673 310.18194447 126.18723167 328.96087333 111 345 C109.78535694 346.39034614 108.57670441 347.78595562 107.375 349.1875 C100.86776122 356.61585477 93.75229566 362.88085462 86 369 C85.09507812 369.721875 84.19015625 370.44375 83.2578125 371.1875 C57.50859379 391.15919318 27.71737215 404.02523277 -4 411 C-4.79647949 411.17934082 -5.59295898 411.35868164 -6.41357422 411.54345703 C-32.92387646 417.20776307 -63.7215256 415.96769982 -90 410 C-90.83644043 409.81808105 -91.67288086 409.63616211 -92.53466797 409.44873047 C-126.68657285 401.86769862 -159.43183157 384.87254819 -185 361 C-186.39112536 359.78624946 -187.78671325 358.57758747 -189.1875 357.375 C-196.61585477 350.86776122 -202.88085462 343.75229566 -209 336 C-209.721875 335.09507812 -210.44375 334.19015625 -211.1875 333.2578125 C-223.59132094 317.26574336 -233.59532159 299.32039618 -240.89453125 280.453125 C-241.89254672 277.96722033 -241.89254672 277.96722033 -243.57421875 276.03125 C-245.39581802 273.43609487 -245.61053493 271.38194824 -246 268.25 C-246.45171875 264.65507164 -247.08724048 261.77915013 -248.42578125 258.390625 C-259.45298758 230.06176545 -256.56670358 188.91615814 -250 160 C-249.81808105 159.16355957 -249.63616211 158.32711914 -249.44873047 157.46533203 C-241.86769862 123.31342715 -224.87254819 90.56816843 -201 65 C-199.78624946 63.60887464 -198.57758747 62.21328675 -197.375 60.8125 C-190.86776122 53.38414523 -183.75229566 47.11914538 -176 41 C-175.09507812 40.278125 -174.19015625 39.55625 -173.2578125 38.8125 C-147.50859379 18.84080682 -117.71737215 5.97476723 -86 -1 C-84.80528076 -1.26901123 -84.80528076 -1.26901123 -83.58642578 -1.54345703 C-57.07612354 -7.20776307 -26.2784744 -5.96769982 0 0 Z " fill="#FDFDFD" transform="translate(255,5)"/>
<path d="M0 0 C0.83644043 0.18191895 1.67288086 0.36383789 2.53466797 0.55126953 C36.68657285 8.13230138 69.43183157 25.12745181 95 49 C96.39112536 50.21375054 97.78671325 51.42241253 99.1875 52.625 C106.61585477 59.13223878 112.88085462 66.24770434 119 74 C119.721875 74.90492187 120.44375 75.80984375 121.1875 76.7421875 C141.15919318 102.49140621 154.02523277 132.28262785 161 164 C161.17934082 164.79647949 161.35868164 165.59295898 161.54345703 166.41357422 C166.70766432 190.58329512 167.2159869 222.01997716 161 246 C160.34 246.33 159.68 246.66 159 247 C158.505 246.21625 158.01 245.4325 157.5 244.625 C154.23599166 241.19779125 151.54388985 240.74861021 147 240 C145.845 239.79375 144.69 239.5875 143.5 239.375 C142.2625 239.189375 142.2625 239.189375 141 239 C141 238.34 141 237.68 141 237 C141.66 236.4225 142.32 235.845 143 235.25 C145.24574913 233.12343705 145.24574913 233.12343705 145.5 230.0625 C144.87122247 226.21123764 143.74120655 224.75915225 141 222 C137.96513155 220.90765405 137.96513155 220.90765405 134.3125 220.5 C133.60552979 220.39308838 132.89855957 220.28617676 132.17016602 220.17602539 C130.48030755 219.92246916 128.78897136 219.67866719 127.09667969 219.44189453 C123.42667933 218.91818745 119.76430337 218.34907698 116.1015625 217.77734375 C103.58800753 215.83535917 91.0823159 213.95818211 78.50805664 212.44946289 C75.32158861 212.04120291 72.16437038 211.55187203 69 211 C69 210.34 69 209.68 69 209 C70.06436279 208.94054199 71.12872559 208.88108398 72.2253418 208.81982422 C76.18773339 208.59096822 80.14691527 208.32495236 84.10620117 208.04785156 C85.81746887 207.93325991 87.52943628 207.82865045 89.24194336 207.734375 C91.70940571 207.59677617 94.17209101 207.42298819 96.63671875 207.2421875 C97.39836838 207.20753387 98.16001801 207.17288025 98.94474792 207.13717651 C102.87829858 206.81168338 105.31461381 206.17840096 107.89770508 203.23486328 C109.67969083 200.49286917 110.99774197 198.09788845 112 195 C111.26998779 194.91959473 110.53997559 194.83918945 109.7878418 194.75634766 C106.42060964 194.38318668 103.05406555 194.00412595 99.6875 193.625 C98.53958984 193.49867188 97.39167969 193.37234375 96.20898438 193.2421875 C89.07600227 192.43391757 82.04290912 191.39161096 75 190 C74.94054199 189.36723145 74.88108398 188.73446289 74.81982422 188.08251953 C73.44232265 174.05635712 71.46780812 161.04264764 66 148 C65.57291748 146.9805127 65.57291748 146.9805127 65.13720703 145.94042969 C52.62964632 117.02577026 28.59384659 96.10561703 -0.25 84.3125 C-32.76971178 72.42487302 -69.15236727 71.84398562 -101 86 C-127.98473867 98.73941983 -150.27461359 121.34865014 -160.92285156 149.43408203 C-165.59544141 162.95930688 -167.56230824 176.81204735 -169 191 C-173.21719234 191.57218379 -177.43472373 192.14177931 -181.65258789 192.70898438 C-183.08725414 192.90228404 -184.52182552 193.09628926 -185.95629883 193.29101562 C-188.01879704 193.57087 -190.08162373 193.84818101 -192.14453125 194.125 C-193.38565674 194.29257813 -194.62678223 194.46015625 -195.90551758 194.6328125 C-199 195 -199 195 -202 195 C-201.4070085 196.46291304 -200.80016177 197.92021513 -200.1875 199.375 C-199.85105469 200.18710938 -199.51460937 200.99921875 -199.16796875 201.8359375 C-198.05560918 204.30147458 -198.05560918 204.30147458 -195 206 C-192.76153416 206.34581427 -190.50709752 206.59196809 -188.25 206.78125 C-187.59547852 206.84026489 -186.94095703 206.89927979 -186.26660156 206.96008301 C-184.17835279 207.14816979 -182.0894171 207.32540092 -180 207.5 C-177.24903981 207.72987996 -174.49938846 207.97085155 -171.75 208.21875 C-169.91695312 208.3724707 -169.91695312 208.3724707 -168.046875 208.52929688 C-165 209 -165 209 -162 211 C-172.55734901 213.04335787 -183.15089201 214.60200817 -193.8125 216 C-195.10623535 216.17184814 -196.3999707 216.34369629 -197.73291016 216.52075195 C-203.54155938 217.29077988 -209.35053227 218.04546411 -215.16796875 218.74609375 C-216.9453976 218.97590527 -218.72274813 219.20632376 -220.5 219.4375 C-221.68106323 219.56608398 -221.68106323 219.56608398 -222.88598633 219.69726562 C-228.3226371 220.43313431 -231.17949752 222.01287124 -235 226 C-235.82563373 230.54098553 -235.32543335 232.44066142 -233 236.4375 C-232.34 237.283125 -231.68 238.12875 -231 239 C-231.80824219 239.09796875 -232.61648437 239.1959375 -233.44921875 239.296875 C-241.54094811 240.31060816 -241.54094811 240.31060816 -248 245 C-248.99 245.99 -248.99 245.99 -250 247 C-254.09938299 233.44215599 -254.40647913 219.68417867 -254.375 205.625 C-254.37478851 204.74937408 -254.37457703 203.87374817 -254.37435913 202.97158813 C-254.33920973 188.33527611 -253.2498549 174.31057716 -250 160 C-249.81808105 159.16355957 -249.63616211 158.32711914 -249.44873047 157.46533203 C-241.86769862 123.31342715 -224.87254819 90.56816843 -201 65 C-199.78624946 63.60887464 -198.57758747 62.21328675 -197.375 60.8125 C-190.86776122 53.38414523 -183.75229566 47.11914538 -176 41 C-175.09507812 40.278125 -174.19015625 39.55625 -173.2578125 38.8125 C-147.50859379 18.84080682 -117.71737215 5.97476723 -86 -1 C-84.80528076 -1.26901123 -84.80528076 -1.26901123 -83.58642578 -1.54345703 C-57.07612354 -7.20776307 -26.2784744 -5.96769982 0 0 Z " fill="#FEFEFE" transform="translate(255,5)"/>
<path d="M0 0 C1.02205536 0.00273422 1.02205536 0.00273422 2.0647583 0.00552368 C12.26844099 0.05143502 21.79626144 0.60197275 31.6875 3.3125 C33.06374513 3.65647795 34.44004985 4.00021755 35.81640625 4.34375 C66.69356096 12.41515274 93.11353552 32.06571459 109.6875 59.3125 C119.70417507 76.48985601 125.51877286 95.26958774 124.6875 115.3125 C125.64011719 115.28414063 126.59273438 115.25578125 127.57421875 115.2265625 C132.28844495 115.22893205 136.85251086 115.95306358 141.5 116.6875 C142.38204102 116.82325439 143.26408203 116.95900879 144.17285156 117.09887695 C150.04669102 118.01618971 155.87621213 119.05338763 161.6875 120.3125 C160.49935851 125.82115601 159.45232162 128.83452801 154.6875 132.3125 C150.48335182 133.22920547 146.29073464 133.42593294 142 133.625 C140.86626953 133.69783203 139.73253906 133.77066406 138.56445312 133.84570312 C131.93469493 134.24692768 125.32828701 134.40584629 118.6875 134.3125 C118.6875 134.9725 118.6875 135.6325 118.6875 136.3125 C119.80125 136.34988281 120.915 136.38726562 122.0625 136.42578125 C123.60419249 136.4915852 125.14585785 136.55802702 126.6875 136.625 C127.77417969 136.65883789 127.77417969 136.65883789 128.8828125 136.69335938 C134.77741515 136.9681078 140.45193663 137.96598539 146.22883606 139.10346985 C151.37797265 140.10359527 156.5315292 140.90053723 161.73046875 141.59375 C162.48248566 141.69515793 163.23450256 141.79656586 164.00930786 141.90104675 C167.08377087 142.31334233 170.15872477 142.72078951 173.2355957 143.11474609 C175.52702678 143.41012309 177.81619843 143.71962735 180.10546875 144.03125 C180.79505173 144.11572388 181.4846347 144.20019775 182.19511414 144.28723145 C187.3108857 144.99851307 190.84335487 146.46835487 194.5 150.125 C196.10062486 153.07351948 196.10134197 155.00176426 195.6875 158.3125 C194.3125 160.6875 194.3125 160.6875 192.6875 162.3125 C192.0275 162.3125 191.3675 162.3125 190.6875 162.3125 C190.6875 162.9725 190.6875 163.6325 190.6875 164.3125 C191.48414063 164.32667969 192.28078125 164.34085938 193.1015625 164.35546875 C202.8360628 164.79363969 202.8360628 164.79363969 206.375 167.75 C208.88033352 170.52618039 209.62372593 171.36538723 209.87109375 175.0390625 C209.67286844 178.57337758 208.88811631 181.34200509 207.75 184.6875 C206.50448531 188.47145119 205.50163808 191.8330348 205.3125 195.8125 C204.66782797 199.42266337 203.90874463 201.1544206 200.91796875 203.34765625 C195.84324934 205.54285011 190.1448243 205.81162229 184.6875 206.3125 C185.3475 207.3025 186.0075 208.2925 186.6875 209.3125 C187.32024336 215.00719027 187.32024336 215.00719027 186.6875 217.3125 C183.93647175 220.07237684 182.28340389 221.22555247 178.39079285 221.79351807 C177.14058853 221.78463562 175.89038422 221.77575317 174.60229492 221.76660156 C173.56244446 221.76747772 173.56244446 221.76747772 172.50158691 221.76837158 C170.22319464 221.76559746 167.94613082 221.73454032 165.66796875 221.703125 C164.08328465 221.69566015 162.4985913 221.68996837 160.91389465 221.68597412 C156.75275978 221.67073683 152.59218768 221.63147208 148.43127441 221.5871582 C143.43365355 221.53895041 138.43584401 221.52066235 133.43805695 221.49734497 C125.85414715 221.45861919 118.27147095 221.38195382 110.6875 221.3125 C110.6875 203.4925 110.6875 185.6725 110.6875 167.3125 C114.1525 165.3325 114.1525 165.3325 117.6875 163.3125 C124.63223954 157.54434857 125.99191236 149.79043822 127.6875 141.3125 C124.0575 141.6425 120.4275 141.9725 116.6875 142.3125 C116.171875 143.67375 115.65625 145.035 115.125 146.4375 C113.02190509 151.15827688 110.32816138 154.85227411 105.6875 157.3125 C104.0375 157.3125 102.3875 157.3125 100.6875 157.3125 C100.6875 178.4325 100.6875 199.5525 100.6875 221.3125 C99.6975 221.3125 98.7075 221.3125 97.6875 221.3125 C97.6875 200.1925 97.6875 179.0725 97.6875 157.3125 C95.3775 156.9825 93.0675 156.6525 90.6875 156.3125 C86.04536976 152.76959914 82.97024249 148.01357772 81.6875 142.3125 C78.0575 141.9825 74.4275 141.6525 70.6875 141.3125 C72.88270841 152.52136718 75.56231023 159.2833515 84.6875 166.3125 C85.6775 166.9725 86.6675 167.6325 87.6875 168.3125 C88.04826355 170.56509399 88.04826355 170.56509399 88.02807617 173.40478516 C88.02784958 174.46573395 88.02762299 175.52668274 88.02738953 176.61978149 C88.01190567 177.76876923 87.99642181 178.91775696 87.98046875 180.1015625 C87.97622391 181.27512299 87.97197906 182.44868347 87.96760559 183.6578064 C87.95076976 187.41793454 87.91310777 191.17753297 87.875 194.9375 C87.85995954 197.48176311 87.84627003 200.0260346 87.83398438 202.5703125 C87.80085017 208.81789005 87.75060206 215.06515719 87.6875 221.3125 C82.95533707 221.43658851 78.22413168 221.52706516 73.49072266 221.5871582 C71.88248182 221.61222128 70.27435398 221.64628171 68.66650391 221.68969727 C66.34769761 221.75071848 64.03040335 221.77878963 61.7109375 221.80078125 C60.99819672 221.82658768 60.28545593 221.8523941 59.55111694 221.87898254 C55.66255314 221.88114135 53.24405535 221.33016105 50.27197266 218.91479492 C47.01128716 215.63162406 45.6875 213.93705292 45.6875 209.3125 C39.22571167 212.70561077 33.31032564 216.5500123 27.4375 220.875 C26.66148437 221.43896484 25.88546875 222.00292969 25.0859375 222.58398438 C21.91505459 224.8972138 18.79836197 227.22135012 15.765625 229.71484375 C13.6875 231.3125 13.6875 231.3125 11.6875 231.3125 C11.6875 199.6325 11.6875 167.9525 11.6875 135.3125 C20.83146109 130.74051945 29.95246575 126.18555304 39.1875 121.8125 C48.41205225 117.42394939 57.57319353 112.92515307 66.6875 108.3125 C71.78839837 105.76205082 78.23669201 107.62276733 83.625 108.625 C94.92145098 110.62553926 106.29851902 111.9595691 117.6875 113.3125 C115.49932989 82.07448539 103.34929159 55.99503082 79.6875 35.3125 C54.00340729 13.96259793 19.715709 4.43358969 -13.3125 7.3125 C-20.49788407 8.31619159 -27.40211122 10.13529383 -34.3125 12.3125 C-35.04146484 12.53711914 -35.77042969 12.76173828 -36.52148438 12.99316406 C-63.67137085 21.58854287 -86.3144555 41.20401111 -99.57861328 66.26489258 C-103.38738148 73.71802812 -106.15643181 81.2112339 -108.3125 89.3125 C-108.63557129 90.33400146 -108.95864258 91.35550293 -109.29150391 92.40795898 C-110.54933109 96.79722546 -110.99193257 101.21762966 -111.4375 105.75 C-111.56705078 106.99040039 -111.56705078 106.99040039 -111.69921875 108.25585938 C-111.90921616 110.27416778 -112.11164451 112.29326133 -112.3125 114.3125 C-111.19915283 114.135979 -110.08580566 113.95945801 -108.9387207 113.77758789 C-104.74795424 113.11454706 -100.5561451 112.45830537 -96.36401367 111.80395508 C-94.56099488 111.52158553 -92.75825127 111.2374523 -90.95581055 110.95141602 C-85.82507321 110.13785006 -80.69101544 109.36858628 -75.54650879 108.64715576 C-73.6014501 108.35578489 -71.66681412 107.99643666 -69.73535156 107.62548828 C-59.53219602 106.03610784 -52.2000465 110.42498923 -43.4375 115.0625 C-42.00665231 115.79579319 -40.57436059 116.52627566 -39.140625 117.25390625 C-34.52837847 119.60113688 -29.92054144 121.95702473 -25.3125 124.3125 C-17.7225 127.9425 -10.1325 131.5725 -2.3125 135.3125 C-2.3125 166.9925 -2.3125 198.6725 -2.3125 231.3125 C-5.05314964 229.94217518 -7.33749875 228.70132717 -9.81640625 226.9921875 C-10.46963867 226.54278809 -11.12287109 226.09338867 -11.79589844 225.63037109 C-12.48200195 225.15422363 -13.16810547 224.67807617 -13.875 224.1875 C-14.58301758 223.69975098 -15.29103516 223.21200195 -16.02050781 222.70947266 C-21.12813852 219.17671404 -26.13540932 215.53419943 -31.078125 211.7734375 C-33.22101835 210.37231492 -34.80920476 209.73737121 -37.3125 209.3125 C-37.3125 210.34375 -37.3125 211.375 -37.3125 212.4375 C-37.83891122 215.7325677 -38.85652219 217.34764671 -41.375 219.53125 C-47.6273649 223.97629067 -54.98626509 222.94642344 -62.3125 222.6875 C-67.2625 222.56375 -72.2125 222.44 -77.3125 222.3125 C-77.3125 205.1525 -77.3125 187.9925 -77.3125 170.3125 C-73.0225 170.3125 -68.7325 170.3125 -64.3125 170.3125 C-64.3125 166.6825 -64.3125 163.0525 -64.3125 159.3125 C-67.19267102 159.29136667 -70.05862941 159.31920793 -72.9375 159.375 C-73.74574219 159.36404297 -74.55398437 159.35308594 -75.38671875 159.34179688 C-76.17949219 159.36435547 -76.97226563 159.38691406 -77.7890625 159.41015625 C-78.51174316 159.41539307 -79.23442383 159.42062988 -79.97900391 159.42602539 C-84.01593089 160.95961839 -86.29830958 163.52710427 -88.3125 167.3125 C-89.17041772 171.55571022 -89.15083935 175.70915515 -89.1171875 180.02734375 C-89.13089386 181.23822159 -89.14460022 182.44909943 -89.15872192 183.69667053 C-89.19598633 187.54815952 -89.19230884 191.39835648 -89.1875 195.25 C-89.20562899 197.86785867 -89.2264323 200.48570027 -89.25 203.10351562 C-89.30181821 209.50663688 -89.32006412 215.90918829 -89.3125 222.3125 C-90.6325 222.3125 -91.9525 222.3125 -93.3125 222.3125 C-93.31796844 221.31771133 -93.31796844 221.31771133 -93.32354736 220.30282593 C-93.36540147 213.39179614 -93.43476824 206.48142865 -93.52001953 199.57080078 C-93.54822159 196.99274321 -93.56943987 194.41459929 -93.58349609 191.83642578 C-93.60493509 188.12748025 -93.65159396 184.41957207 -93.703125 180.7109375 C-93.70435364 179.56072113 -93.70558228 178.41050476 -93.70684814 177.22543335 C-93.82063528 170.98939858 -94.02542365 166.99984632 -98.3125 162.3125 C-101.3336434 160.2984044 -102.11910017 160.04413404 -105.54296875 159.8984375 C-106.74663086 159.84042969 -106.74663086 159.84042969 -107.97460938 159.78125 C-108.80798828 159.7503125 -109.64136719 159.719375 -110.5 159.6875 C-111.34498047 159.64882812 -112.18996094 159.61015625 -113.06054688 159.5703125 C-115.14417524 159.47613721 -117.22830753 159.39323325 -119.3125 159.3125 C-119.3125 162.9425 -119.3125 166.5725 -119.3125 170.3125 C-115.0225 170.3125 -110.7325 170.3125 -106.3125 170.3125 C-106.3125 187.1425 -106.3125 203.9725 -106.3125 221.3125 C-122.87298172 221.47293524 -122.87298172 221.47293524 -129.93359375 221.5078125 C-134.75099311 221.53172174 -139.56808829 221.56000192 -144.38525391 221.61425781 C-148.26913536 221.6577282 -152.15269062 221.68163954 -156.03679657 221.69200897 C-157.51840093 221.69939831 -158.99998749 221.71382818 -160.48145294 221.73542023 C-162.55736321 221.76447212 -164.63192687 221.76845556 -166.70800781 221.76660156 C-167.88937317 221.77548401 -169.07073853 221.78436646 -170.28790283 221.79351807 C-173.92881782 221.21448364 -175.09208435 220.1962645 -177.3125 217.3125 C-177.95972706 214.45482798 -177.59672103 212.29682086 -177.3125 209.3125 C-176.6525 208.3225 -175.9925 207.3325 -175.3125 206.3125 C-176.26511719 206.20292969 -177.21773437 206.09335937 -178.19921875 205.98046875 C-179.45347656 205.82191406 -180.70773438 205.66335938 -182 205.5 C-183.86205078 205.27376953 -183.86205078 205.27376953 -185.76171875 205.04296875 C-189.28090451 204.31899984 -191.43685379 203.4255439 -194.3125 201.3125 C-196.4896584 197.61133072 -196.58635656 193.82735174 -196.9609375 189.64453125 C-197.31719308 187.28136925 -197.96041056 185.38849796 -198.875 183.1875 C-200.39023387 179.3881076 -200.9239558 176.43982665 -200.3125 172.3125 C-198.07368052 168.00069951 -196.73006215 166.76900307 -192.0859375 165.2734375 C-188.83781047 164.51624884 -185.60172494 163.8615068 -182.3125 163.3125 C-182.95832031 162.55839844 -183.60414063 161.80429688 -184.26953125 161.02734375 C-186.3125 158.3125 -186.3125 158.3125 -187 154.875 C-186.16132122 150.52911907 -184.960758 149.36977243 -181.62036133 146.66137695 C-177.06308065 143.99778066 -171.9784733 143.70922741 -166.8125 143.125 C-165.62503174 142.96974854 -164.43756348 142.81449707 -163.21411133 142.65454102 C-159.58273099 142.18382894 -155.94851494 141.74577394 -152.3125 141.3125 C-149.16975294 140.92041692 -146.02794997 140.52195876 -142.88671875 140.11791992 C-141.0427448 139.88290058 -139.19774514 139.65570843 -137.3515625 139.4387207 C-129.90247578 138.52514021 -122.63032655 136.96225263 -115.3125 135.3125 C-116.19510498 135.24780518 -117.07770996 135.18311035 -117.98706055 135.11645508 C-121.27839979 134.8642742 -124.56674562 134.59171993 -127.85522461 134.30541992 C-129.27546154 134.18594865 -130.69639863 134.07450608 -132.11791992 133.97143555 C-134.16824858 133.82134143 -136.21427588 133.64198732 -138.26171875 133.45703125 C-139.49237061 133.35753174 -140.72302246 133.25803223 -141.9909668 133.15551758 C-146.73872166 131.9505196 -149.09700349 129.28044672 -151.625 125.1875 C-152.3125 123.3125 -152.3125 123.3125 -152.3125 120.3125 C-151.57386719 120.19132812 -150.83523437 120.07015625 -150.07421875 119.9453125 C-149.05972656 119.77773437 -148.04523438 119.61015625 -147 119.4375 C-145.90300781 119.25703125 -144.80601562 119.0765625 -143.67578125 118.890625 C-140.66680616 118.3734028 -137.68081227 117.78701891 -134.6875 117.1875 C-129.51750757 116.22424086 -124.55275283 116.1473104 -119.3125 116.3125 C-119.33699219 115.0028125 -119.36148438 113.693125 -119.38671875 112.34375 C-119.35620985 81.10264036 -104.42748031 53.48749595 -82.82421875 31.81640625 C-60.06686716 10.20535089 -31.19410916 -0.13271634 0 0 Z " fill="#144581" transform="translate(205.3125,79.6875)"/>
<path d="M0 0 C8.49350123 6.217186 15.90409492 14.05611784 18.58203125 24.45703125 C20.16637862 39.22912252 18.24542432 52.27319666 8.83203125 64.14453125 C0.93818306 72.79971505 -9.72121106 77.37795915 -21.35717773 77.98046875 C-34.21714328 78.22423068 -43.92002117 73.28352084 -53.25 64.7890625 C-60.88489784 56.98782701 -64.96894703 47.04384664 -64.98046875 36.20703125 C-64.64097035 24.26208556 -60.9176824 15.68039143 -53.04296875 6.76953125 C-38.20112843 -6.30542332 -17.72082688 -11.30812055 0 0 Z " fill="#134481" transform="translate(229.41796875,117.54296875)"/>
<path d="M0 0 C0.54873779 0.16226074 1.09747559 0.32452148 1.6628418 0.49169922 C4.30227384 1.06574053 6.6934075 1.12957124 9.39453125 1.1328125 C10.95204102 1.13474609 10.95204102 1.13474609 12.54101562 1.13671875 C13.62060547 1.13285156 14.70019531 1.12898437 15.8125 1.125 C16.88048828 1.12886719 17.94847656 1.13273438 19.04882812 1.13671875 C24.47265646 1.13001024 29.65842492 0.96011193 35 0 C34.67 1.32 34.34 2.64 34 4 C30.37 5.65 26.74 7.3 23 9 C22.67 43.98 22.34 78.96 22 115 C20.35 115 18.7 115 17 115 C17 80.02 17 45.04 17 9 C15.35 8.67 13.7 8.34 12 8 C9.87906977 7.18835167 7.77481301 6.33206272 5.6875 5.4375 C4.61886719 4.98246094 3.55023438 4.52742187 2.44921875 4.05859375 C1.64097656 3.70925781 0.83273438 3.35992187 0 3 C0 2.01 0 1.02 0 0 Z " fill="#224F89" transform="translate(190,196)"/>
<path d="M0 0 C3.95522111 2.08955078 6.62738482 4.22290572 9 8 C9.89991132 12.9130294 9.50962889 16.96186709 7.3125 21.4375 C3.74558223 25.3900305 1.48103729 26.757207 -3.8125 27.625 C-8.52683585 27.47263553 -11.10492769 24.93140801 -14.43359375 21.82421875 C-17.20743973 18.59382954 -17.34233831 15.21650524 -17.28125 11.0625 C-16.67697907 6.63117985 -14.06761379 3.88967816 -10.75 1.125 C-7.10441212 -0.36637686 -3.84486501 -0.68604454 0 0 Z " fill="#F8F9FB" transform="translate(118,211)"/>
<path d="M0 0 C4.38773175 2.19386588 7.09334197 4.44520582 9 9 C9.84137629 14.5741179 8.39270981 17.73182317 5.484375 22.30078125 C3.27649234 24.82822587 1.15644241 25.77768944 -2.11328125 26.40625 C-6.71564602 26.60244317 -9.3941182 26.18372756 -13 23.1875 C-16.29878032 20.09489345 -17.18007935 17.21195787 -17.4375 12.75 C-17.41406345 7.96894285 -15.74345728 5.68882499 -12.5078125 2.3125 C-8.84347336 -0.87718381 -4.62353299 -0.56042824 0 0 Z " fill="#F8F9FB" transform="translate(308,207)"/>
<path d="M0 0 C1.60080151 4.00200378 0.29279692 7.04556236 -1 11 C-3 11 -3 11 -5.625 8.625 C-8 6 -8 6 -8 4 C-5.36 3.34 -2.72 2.68 0 2 C0 1.34 0 0.68 0 0 Z " fill="#ECEFF4" transform="translate(412,260)"/>
<path d="M0 0 C2.97 0.99 5.94 1.98 9 3 C9 5 9 5 6.625 7.625 C4 10 4 10 2 10 C1.34 6.7 0.68 3.4 0 0 Z " fill="#EEF1F5" transform="translate(7,261)"/>
<path d="M0 0 C2.97 0 5.94 0 9 0 C9.33 0.99 9.66 1.98 10 3 C6.7 2.67 3.4 2.34 0 2 C0 1.34 0 0.68 0 0 Z " fill="#B2C2D5" transform="translate(324,214)"/>
</svg>
